<?xml version="1.0" encoding="UTF-8"?><svg id="_レイヤー_2" xmlns="http://www.w3.org/2000/svg" viewBox="0 0 663.81 132.68"><defs><style>.cls-1{stroke-width:0px; fill:#ffffff;}</style></defs><g id="_レイヤー_1-2"><path class="cls-1" d="m103.77,9.08c-1.11,2.96-1.85,5.56-2.22,7.97-.56,2.59-.93,5.19-.93,7.97-.37,7.04-.74,14.27-.93,21.68-.18,7.6-.18,14.82-.18,21.68,0,12.04.37,24.09,1.11,35.95,0,1.67.18,3.34.56,5.19,0,1.85.18,3.52.56,4.82l.55,3.33c.19,1.11.37,2.41.37,3.52,0,4.26-2.22,6.3-6.3,6.3-2.22,0-4.45-.55-6.3-1.67-2.22-1.11-3.33-2.59-3.52-4.45-.37-1.11-.37-2.22-.37-3.33s-.19-2.41-.19-3.71v-7.23c-.37-5.37-.74-10.75-.74-16.12l-.37-18.16c-2.22.37-4.82.74-7.41,1.11l-7.97,1.11c-2.59.37-5,.55-7.23.74l-5.37.56c-4.82.55-9.64.93-14.64,1.3-5.19.37-10.56.74-16.49,1.11.19,3.71.37,7.04.74,9.82l.74,8.34c.19,3.71.56,7.41,1.3,11.3.74,4.08,1.3,7.23,2.04,9.64.18.74.37,1.48.37,1.85,0,1.85-.93,3.33-2.41,4.45s-3.15,1.67-5,1.67c-3.33,0-5.56-1.48-7.04-4.63-1.11-2.04-1.85-4.82-2.41-8.34-.56-3.34-.93-7.04-1.3-11.12-.37-3.71-.74-7.6-.93-11.49l-.55-10.93h-4.82c-1.48,0-2.96-.56-4.26-1.67-1.48-.93-2.23-2.22-2.23-3.89s.37-3.15,1.11-4.45c.74-1.11,2.04-1.85,3.89-1.85.74,0,1.85,0,3.15-.19,1.11,0,2.04-.18,2.78-.37v-8.89c0-1.48,0-3.52.19-5.93,0-2.22,0-4.45.18-7.04l.37-7.04c0-2.22.18-4.26.56-6.11.37-3.89.74-7.6,1.3-10.93.37-3.34,1.11-6.3,2.04-8.53.55-1.67,1.3-2.96,2.22-3.71.74-.55,1.85-.93,3.71-.93s4.08.56,6.3,1.67c2.22,1.3,3.52,2.96,3.52,4.82v.18c0,.56-.19.93-.19,1.11-.74,2.96-1.48,5.93-2.22,9.08l-1.85,9.64c-.37,1.85-.74,3.71-.93,5.56-.37,1.85-.56,3.71-.56,5.56-.37,1.85-.56,3.33-.56,4.82-.18,1.48-.18,2.6-.18,3.34v5.74c0,2.23,0,4.63.18,7.41,3.89-.18,8.71-.55,14.27-1.11l16.86-1.67c5.56-.56,10.93-1.11,16.12-1.85l12.6-1.3c0-6.67.37-13.71.74-20.94.18-7.23.37-13.71.37-19.64v-4.26c-.18-1.48-.18-2.78-.18-4.26,0-3.33.37-6.11,1.48-8.34.93-2.22,3.34-3.34,7.23-3.34,2.22,0,4.45.56,6.67,1.67,2.04,1.11,3.15,2.78,3.15,5,0,1.11-.18,2.04-.56,2.41Z"/><path class="cls-1" d="m147.33,126.38c-1.85,1.67-4.82,2.59-8.89,2.59-1.11,0-2.41-.37-3.7-.93-1.3-.56-2.78-1.48-4.45-2.59-1.48-.93-2.41-1.85-2.96-2.78-.56-.74-.74-1.85-.74-2.96,0-.93.19-1.85.93-2.96.55-.93,1.3-1.85,2.41-2.78.74-.74,1.85-1.3,3.15-1.85,1.11-.37,2.41-.74,3.71-.74,2.6,0,4.82.37,6.67.74,1.67.74,2.96,1.48,3.89,2.22.93.93,1.48,1.85,1.85,2.96.37,1.11.56,2.22.56,3.33,0,2.22-.93,4.08-2.41,5.75Z"/><path class="cls-1" d="m286.87,129.9c-1.11.74-2.78,1.11-4.63,1.11-2.04,0-3.89-.74-5.37-1.85-1.85-1.3-2.96-2.78-3.52-4.63-1.11-2.96-2.04-6.86-2.78-11.67-.74-4.82-.93-10.01-.93-15.94,0-4.82,0-10.19.19-15.94,0-5.56,0-11.31.37-17.24.18-5.93.56-11.86,1.11-17.97.37-5.93.93-11.68,1.67-17.61-3.34,6.49-6.11,12.6-8.53,18.16-2.59,5.75-4.82,11.12-6.67,16.31-2.04,5.19-3.89,10.19-5.37,15.01l-5.19,14.46-2.04,5.56c-.93,2.6-1.85,5-2.78,7.6-1.11,2.6-2.04,5-2.96,7.23-1.11,2.22-1.85,3.71-2.59,4.45-2.04,2.6-4.45,3.89-7.04,3.89-2.23,0-4.08-.74-5.56-2.6-5.56-5.56-10.38-12.6-14.46-20.94-4.45-8.15-8.15-16.86-11.3-25.76-1.11-2.59-2.04-5.37-2.78-7.97-.74-2.59-1.48-5.56-2.23-8.52-.74-2.78-1.48-5.75-2.22-9.08-.74-3.15-1.48-6.67-2.23-10.75l-1.11,8.34-.74,7.41-.37,7.41v8.71c0,10.19,0,19.09.37,26.87.37,7.78.74,13.53,1.48,17.42,0,1.11.18,1.85.56,2.59l.74,2.6c.37,1.11.55,2.04.93,2.96.37,1.11.56,2.04.56,3.15,0,1.3-.93,2.41-2.78,3.52-2.04,1.11-4.26,1.48-6.67,1.48-2.96,0-5-1.3-5.75-3.89-.37-.93-.74-2.78-.93-5.38-.37-2.41-.74-5.75-.93-10.19-.19-2.41-.19-5-.19-7.6l-.37-7.6v-12.23c0-12.97.37-25.02,1.48-36.14.93-11.12,2.22-20.75,4.08-28.91,0-.56.18-1.3.18-2.41v-2.59c0-1.48.37-2.78,1.3-3.89.74-.93,2.78-1.48,5.74-1.48,2.22,0,4.82.55,7.6,1.48,2.59,1.11,4.08,2.78,4.82,4.82.56,2.96.93,5.93,1.3,8.89.18,2.96.55,5.93.93,8.71,1.3,8.34,2.96,16.49,5,24.28,1.85,7.78,4.45,15.57,7.78,22.98,1.67,4.26,3.71,8.52,5.93,12.6,2.22,4.26,4.82,8.89,8.15,14.08,1.67-3.71,3.52-7.78,5.37-12.6,1.67-4.82,3.71-10.38,6.3-17.05,2.22-6.3,4.82-12.97,7.41-20.01,2.41-6.67,5-13.16,7.78-19.27,2.59-5.93,5.37-11.12,8.15-15.75,2.6-4.45,5.19-7.78,7.78-9.64,1.11-.74,2.59-1.3,4.63-1.67,1.85-.18,3.71-.37,5.56-.37,1.3,0,2.78.37,4.26.74,1.48.56,2.23,1.48,2.41,2.78,0,1.11-.18,2.23-.37,3.15l-.74,3.15c-.74,4.63-1.48,9.27-2.04,13.9-.56,4.63-.93,9.64-1.11,14.82-.37,5.56-.74,11.49-.74,17.79-.37,6.3-.37,13.53-.37,21.68,0,3.71,0,7.6.37,11.68,0,4.08.37,8.15.74,11.86.18,3.33.56,5.93,1.11,7.97.55,2.22,1.3,4.08,2.04,5.74,0,.37.18.93.56,1.3,0,.56.18,1.11.56,1.67.18.37.37.74.55,1.11.19.56.37.93.37,1.3,0,.93-.74,1.67-1.85,2.41Z"/><path class="cls-1" d="m385.37,85.96c-.39,3.28-1.57,6.81-3.15,10.48-1.57,3.67-3.54,7.47-6.16,11.14-2.75,3.8-5.5,7.08-8.39,9.96-4.85,4.85-9.69,8.12-14.41,10.22-4.98,2.1-9.83,3.01-14.41,2.88-4.59-.13-8.91-1.05-13.1-3.14-4.06-1.97-7.73-4.59-10.88-7.73-4.19-4.19-7.86-9.17-10.61-14.81-2.75-5.63-4.59-11.4-5.63-17.17-1.05-5.5-1.18-10.87-.39-15.85.79-4.98,2.62-8.91,5.63-11.92,3.01-3.01,6.68-5.9,10.88-8.78,4.19-2.62,8.39-4.72,12.32-6.03,5.11-1.44,9.96-2.1,14.67-1.83,4.72.52,8.91,2.62,12.32,6.03,2.49,2.49,4.06,5.63,4.59,9.3.66,3.8.65,7.73-.26,11.8-.92,4.32-2.49,8.52-4.85,12.97-2.36,4.46-5.5,8.39-9.17,12.06-2.62,2.62-5.77,4.98-9.43,7.08-3.67,2.1-7.08,3.67-10.48,4.46,2.75,2.75,5.63,5.11,9.04,6.94,3.28,1.97,6.55,2.88,9.96,2.88,3.41.26,6.81-.52,10.09-1.97,3.28-1.18,6.42-3.28,9.3-6.16,1.57-1.57,3.14-3.41,4.33-5.63,1.18-1.97,2.36-4.19,3.14-6.55.92-2.23,1.57-4.46,2.23-6.68.52-2.1.91-4.06,1.31-6.03.39-1.7,1.18-3.28,2.49-4.59,1.05-1.05,2.36-1.57,3.93-1.57,1.44.13,2.49.39,3.01.92,1.83,1.83,2.49,4.32,2.1,7.34Zm-71.32,23.34c1.48,2.04,3.34,3.71,5.56,5.19,2.22,1.3,5,2.41,8.15,3.15,3.15.74,5.93,1.11,8.34,1.11,2.6,0,5-.74,7.23-1.85,2.41-1.3,4.45-2.96,6.3-5,2.04-2.04,3.71-4.45,5.19-7.04,1.48-2.78,2.59-5.56,3.33-8.52-1.11-3.15-3.33-5.56-7.04-7.04-3.52-1.85-7.97-2.59-13.16-2.59-2.96,0-5.93.37-9.08,1.11-2.96.74-5.93,1.67-8.52,2.96-2.41,1.3-4.45,2.96-6.11,4.82-1.48,1.85-2.41,3.89-2.41,6.11,0,2.78.74,5.37,2.22,7.6Z"/><path class="cls-1" d="m469.23,54.48c-1.48,1.48-2.78,2.22-4.08,2.22-.37,0-.93,0-1.85-.18-1.11,0-1.85,0-2.22-.19-1.3-.37-2.22-.74-2.78-.74-2.22,0-4.45.55-6.49,1.67-2.22,1.11-4.45,2.22-6.3,3.71s-3.52,3.15-5,4.82c-1.48,1.85-2.78,3.34-3.52,4.63-1.48,2.59-3.15,5-4.82,7.6-1.85,2.78-3.33,5.37-4.63,7.78-1.48,2.6-2.6,4.82-3.52,7.04-.93,2.41-1.3,4.45-1.3,5.93,0,4.08.37,8.15,1.3,12.23.74,4.26,1.11,7.97,1.11,11.31,0,2.22-.93,3.89-2.41,5.37-1.67,1.3-3.71,2.04-6.3,2.04-3.71,0-6.3-1.3-7.78-3.71-1.11-1.67-1.85-3.7-2.04-5.93-.37-2.22-.74-4.45-.74-6.67l-.37-14.09c-.37-4.63-.37-9.26-.37-14.08v-10.56l.37-10.38c0-2.96.18-5.74.37-7.97,0-2.22.19-3.52.37-4.08.56-1.67,1.67-3.15,3.34-4.45,1.48-1.11,3.15-1.85,5.19-1.85s3.89.74,5.56,2.04c1.48,1.48,2.41,3.34,2.41,5.75,0,2.59-.18,5.56-.18,8.71-.37,3.33-.56,7.23-.93,11.49,2.22-4.82,5-9.26,8.15-13.34,2.96-3.89,6.11-7.23,9.45-10.01,3.15-2.6,6.3-4.45,9.63-5.93,3.15-1.48,6.12-2.22,9.08-2.22,1.11,0,2.59.18,4.26.55,1.48.37,2.78.93,4.26,1.67,1.3.74,2.41,1.48,3.34,2.22.74,1.11,1.3,2.22,1.3,3.33,0,1.48-.74,2.78-1.85,4.26Z"/><path class="cls-1" d="m552.29,130.27c-1.3,1.48-3.33,2.41-5.93,2.41-3.33,0-5.56-.93-6.86-2.41-.93-.93-1.48-2.04-1.67-3.33-.37-1.11-.37-3.52-.37-6.86-5.19,3.15-10.56,5.19-15.94,6.12-5.37.93-10.19,1.3-14.27,1.3-5.19,0-9.82-.37-13.9-1.3-4.45-.93-8.15-2.22-11.3-4.08-3.34-1.85-5.75-4.08-7.6-6.67-1.85-2.41-2.6-5.19-2.6-8.52,0-3.52,1.11-6.67,3.33-9.64,2.23-2.6,5.19-5,8.89-7.04,3.52-2.04,7.6-3.71,12.42-5.19,4.63-1.48,9.45-2.59,14.46-3.71,4.82-.74,9.82-1.48,14.64-2.04,4.63-.37,8.89-.74,12.79-1.11-.37-2.6-.93-5.19-2.04-7.78-1.11-2.6-2.41-4.82-4.26-6.86-1.85-2.04-4.08-3.71-6.67-5.19-2.59-1.11-5.56-1.85-8.89-1.85-2.59,0-5,.37-7.23,1.11-2.41.74-4.63,1.48-6.48,2.6-2.04,1.11-3.89,2.22-5.38,3.33-1.67,1.11-2.96,2.22-4.08,3.15-1.11,1.11-1.85,2.04-2.59,2.78l-2.78,2.78c-1.85,1.48-3.89,2.22-5.93,2.22s-3.71-.74-5-2.22c-1.48-1.48-2.04-3.15-2.04-5,0-2.59,1.3-5.37,4.26-8.15,2.78-2.59,6.11-4.82,10.19-7.04,2.22-1.11,4.63-2.22,7.23-3.15,2.59-.74,5.37-1.48,7.97-2.22,2.6-.56,5-.93,7.41-1.3,2.22-.37,4.26-.56,5.93-.56,5.56,0,10.56,1.11,15.01,3.15,4.26,2.22,7.97,5.19,11.12,8.53,2.96,3.71,5.19,7.6,6.86,12.04,1.48,4.45,2.41,8.89,2.41,13.34s0,8.89.37,13.16c0,4.45.19,8.89.19,13.34,0,2.59,0,5,.18,7.23v7.04c0,3.71-.74,6.11-1.85,7.6Zm-2.46-40.95c-9.14.56-17.71,1.48-25.7,2.78-8,1.3-14.85,2.96-20.56,5.19-5.71,2.41-8.57,5.37-8.57,8.89,0,1.85.86,3.52,3.14,5,2,1.48,4.57,2.78,7.71,3.89,2.85,1.11,6.28,2.04,9.71,2.59s6.85.74,10,.74c8.28,0,16.85-1.11,25.42-3.33,8.57-2.22,15.42-5.38,20.56-9.45l.86-17.23c-6.28.18-13.99.55-22.56.93Z"/><path class="cls-1" d="m659.74,129.53c-1.48,1.3-3.52,2.04-5.93,2.04-1.48,0-3.34-.93-5.93-2.41-2.78-1.48-6.12-4.45-10.19-8.53-5.19-4.82-10.19-10.01-15.01-15.19-5-5-10.38-10.19-16.31-15.57-1.48,1.3-2.6,2.22-3.34,2.96l-2.59,2.59v13.9c0,1.3,0,2.6.37,3.89l.74,3.89c0,.74.18,1.3.56,1.67.18.56.37,1.11.74,1.67.56,1.3.93,2.41.93,3.15,0,1.48-.74,2.6-2.22,3.34-.74.37-1.48.74-2.22.93s-1.48.37-2.41.37c-4.08,0-6.86-.93-8.53-3.15-1.85-2.22-2.59-5-2.59-8.71,0-1.48,0-4.26.18-7.97l.74-11.86.37-11.12c.18-3.34.37-5.75.37-6.86V23.53c-.18-1.48-.37-2.96-.37-4.08-.37-1.11-.56-2.41-.56-3.52-.19-1.11-.37-2.22-.74-3.52l-.56-2.41c-.37-.56-.37-1.11-.37-1.67,0-1.3,1.3-2.96,4.26-5,1.67-1.11,3.15-1.85,4.45-2.41,1.11-.37,2.22-.74,2.96-.74.93,0,1.85.18,2.78.18.93.18,2.04.56,3.15,1.11,1.85,1.11,2.78,2.04,2.78,2.96,0,.37-.18.93-.37,1.67l-.93,2.78c-.74,2.6-1.3,5.56-1.67,9.08l-.37,7.97v6.86c0,7.78-.19,15.01-.56,21.87-.37,7.04-.74,14.64-.74,22.79,4.82-4.26,9.26-8.15,12.97-11.68,3.71-3.33,7.41-6.67,11.49-10.01,6.67-5.56,11.67-9.27,15.01-11.49,3.15-2.22,4.82-3.33,5.19-3.33,2.41,0,4.45.93,6.3,2.59,1.85,1.67,2.78,4.26,2.78,7.78v.55c-3.15,1.85-6.67,3.89-10.75,6.49-4.08,2.6-8.15,5.56-12.04,8.53l-7.41,6.3c-2.6,2.22-5.19,4.45-7.97,7.04,2.22,2.96,4.45,5.37,6.49,7.6l6.11,6.49,5.93,5.93c1.85,2.04,4.08,4.26,6.67,6.48,3.52,3.71,7.23,6.86,10.93,9.45,3.52,2.78,7.41,5.19,11.49,7.04-1.3,2.96-2.59,4.82-4.08,6.3Z"/></g></svg>